# xmcd
#
# Track frame offsets: 
#        182
#        20865
#        31272
#        52440
#        63905
#        77870
#        92007
#        103022
#        128347
#        141747
#        157042
#        169310
#        185335
#        206547
#
# Disc length: 2959 seconds
#
# Revision: 6
# Processed by: cddbd v1.5.2PL0 Copyright (c) Steve Scherf et al.
# Submitted via: ExactAudioCopyFreeDBPlugin 1.0
#
DISCID=ba0b8d0e,cb0b8d0e
DTITLE=Blondie - Best Of Blondie
DYEAR=1983
DGENRE=Pop
TTITLE0=Heart Of Glass
TTITLE1=Denis
TTITLE2=Tide Is High
TTITLE3=In The Flesh
TTITLE4=Sunday Girl
TTITLE5=Dreaming
TTITLE6=Hanging On The Telephone
TTITLE7=Rapture
TTITLE8=Picture This
TTITLE9=Union City Blue
TTITLE10=Presence Dear
TTITLE11=Call Me
TTITLE12=Atomic
TTITLE13=Rip Her To Shreds
EXTD=YEAR: 1983 ID3G: 17
EXTT0=
EXTT1=
EXTT2=
EXTT3=
EXTT4=
EXTT5=
EXTT6=
EXTT7=
EXTT8=
EXTT9=
EXTT10=
EXTT11=
EXTT12=
EXTT13=
PLAYORDER=
